# xmcd
#
# Track frame offsets:
#	182
#	16400
#	32575
#	52075
#	81790
#
# Disc length: 1406 seconds
#
# Revision: 2
# Processed by: cddbd v1.5.2PL0 Copyright (c) Steve Scherf et al.
# Submitted via: audiograbber 1.83.01
#
DISCID=35057c05
DTITLE=20 Fingers Feat. Roula - Lick It
DYEAR=1994
DGENRE=Dance
TTITLE0=Lick It (20 Fingers Radio Mix)
TTITLE1=Lick It (J.J. 'S Bass Radio Mix)
TTITLE2=Lick It (20 Fingers Club Mix)
TTITLE3=Lick It (Onofrio Club Mix)
TTITLE4=Lick It (J.J. 'S Underground Mix)
EXTD=
EXTT0=
EXTT1=
EXTT2=
EXTT3=
EXTT4=
PLAYORDER=
